<svg id="Layer_1" data-name="Layer 1" xmlns="http://www.w3.org/2000/svg" viewBox="0 0 100 100"><title>Artboard 1</title><path d="M33,70.82a2.22,2.22,0,0,1-3.14,0h0a28.39,28.39,0,0,1-6.61-10.88,2.22,2.22,0,0,1,4.21-1.44l0,.05a23.94,23.94,0,0,0,5.57,9.16A2.22,2.22,0,0,1,33,70.82Zm35.58.63a2.21,2.21,0,0,0,1.59-.67A28.41,28.41,0,0,0,76.83,59.9a2.23,2.23,0,0,0-4.23-1.4A24,24,0,0,1,67,67.67a2.22,2.22,0,0,0,1.59,3.78ZM44.73,28a24,24,0,0,1,10.67,0,2.22,2.22,0,0,0,1.14-4.3l-.15,0a28.52,28.52,0,0,0-12.68,0A2.22,2.22,0,0,0,44.66,28Zm21.76-6.43a10.16,10.16,0,0,1,20.31,0,10.16,10.16,0,0,1-20.31,0Zm4.45,0a5.71,5.71,0,0,0,11.41,0,5.71,5.71,0,0,0-11.41,0ZM93.18,40.69V46.8A4.22,4.22,0,0,1,88.94,51H64.3a4.22,4.22,0,0,1-4.23-4.2h0V40.69a8.51,8.51,0,0,1,8.56-8.45h2.29a2.22,2.22,0,0,1,1.56.64L76.63,37l4.16-4.09a2.22,2.22,0,0,1,1.56-.64h2.29a8.51,8.51,0,0,1,8.58,8.45h0Zm-4.45,0a4.07,4.07,0,0,0-4.11-4H83.28L78.89,41a3.22,3.22,0,0,1-4.5,0L70,36.68H68.63a4.07,4.07,0,0,0-4.11,4v5.86H88.77ZM13.34,21.54a10.16,10.16,0,0,1,20.31,0,10.16,10.16,0,0,1-20.31,0Zm4.45,0a5.71,5.71,0,0,0,11.41,0,5.71,5.71,0,0,0-11.41,0ZM6.93,46.8V40.69a8.51,8.51,0,0,1,8.56-8.45h2.3a2.22,2.22,0,0,1,1.56.64L23.5,37l4.16-4.09a2.22,2.22,0,0,1,1.56-.64h2.29a8.51,8.51,0,0,1,8.56,8.45V46.8A4.22,4.22,0,0,1,35.84,51H11.16a4.22,4.22,0,0,1-4.23-4.2Zm4.45-.25H35.62V40.69a4.07,4.07,0,0,0-4.11-4H30.14L25.75,41a3.22,3.22,0,0,1-4.5,0l-4.39-4.31H15.49a4.07,4.07,0,0,0-4.11,4ZM60.23,62.91a10.16,10.16,0,1,1-10.29-10h.13A10.1,10.1,0,0,1,60.23,62.91Zm-4.45,0a5.71,5.71,0,1,0-5.84,5.58h.13A5.65,5.65,0,0,0,55.78,62.91ZM66.64,82.06v6.11a4.22,4.22,0,0,1-4.23,4.2H37.73a4.22,4.22,0,0,1-4.23-4.2h0V82.06a8.51,8.51,0,0,1,8.57-8.45h2.29a2.22,2.22,0,0,1,1.56.64l4.16,4.09,4.16-4.09a2.22,2.22,0,0,1,1.56-.64h2.29A8.51,8.51,0,0,1,66.64,82.06Zm-4.45,0a4.07,4.07,0,0,0-4.12-4H56.71l-4.39,4.31a3.22,3.22,0,0,1-4.49,0L43.44,78H42.06a4.07,4.07,0,0,0-4.11,4v5.86H62.19Z"/></svg>