<svg id="Layer_1" data-name="Layer 1" xmlns="http://www.w3.org/2000/svg" viewBox="0 0 100 100"><title>Artboard 1</title><path d="M52.48,23.33a2.25,2.25,0,0,0-.86.65L40.17,38,20.33,44.36a13.5,13.5,0,0,0,8.3,25.69l.13,0,3.81,11.77a2.25,2.25,0,0,0,2.83,1.45l10.7-3.46a2.25,2.25,0,0,0,1.45-2.83L43.76,65.17l4.75-1.54,17.41,4.61a2.25,2.25,0,0,0,1.29,0l6.42-2.08a2.25,2.25,0,0,0,1.45-2.83L61.93,22.64a2.25,2.25,0,0,0-2.83-1.45l-6.42,2.08Zm2.19,4,3.68-1.19L70.11,62.56l-3.65,1.18L50.18,59.43,44,40.33l10.66-13ZM73.06,25a2.25,2.25,0,0,0,.73,4.31,12.37,12.37,0,0,1,7,21.74,2.25,2.25,0,1,0,2.94,3.41h0a16.88,16.88,0,0,0-9.58-29.64,2.25,2.25,0,0,0-1.12.18Zm-2,7.72A2.25,2.25,0,0,0,71.65,37,4.69,4.69,0,0,1,76,40.56a4.65,4.65,0,0,1-1.48,5.36,2.25,2.25,0,1,0,2.83,3.48A9.55,9.55,0,0,0,71.9,32.57a2.25,2.25,0,0,0-.89.1Zm-49.3,16L40,42.72l5.54,17.13L27.25,65.77a9,9,0,0,1-5.54-17.13Zm11.34,20,6.42-2.08,3.11,9.63-6.42,2.08Z"/></svg>