<svg id="Layer_1" data-name="Layer 1" xmlns="http://www.w3.org/2000/svg" viewBox="0 0 100 100"><title>Artboard 1</title><path d="M40.2,14.47a7.39,7.39,0,0,0-7.35,7.35v2.45H13.25A7.39,7.39,0,0,0,5.9,31.62V78.18a7.39,7.39,0,0,0,7.35,7.35H86.75a7.39,7.39,0,0,0,7.35-7.35V31.62a7.39,7.39,0,0,0-7.35-7.35H67.15V21.82a7.39,7.39,0,0,0-7.35-7.35Zm0,4.9H59.8a2.39,2.39,0,0,1,2.45,2.45v2.45H37.75V21.82A2.39,2.39,0,0,1,40.2,19.37Zm-27,9.8H86.75a2.39,2.39,0,0,1,2.45,2.45V52.45H80.63v-4.9a2.45,2.45,0,0,0-2.22-2.45h-10a2.45,2.45,0,0,0-2.45,2.45v4.9H34.07v-4.9a2.45,2.45,0,0,0-2.45-2.45h-10a2.45,2.45,0,0,0-2.22,2.45v4.9H10.8V31.62A2.39,2.39,0,0,1,13.25,29.17ZM24.27,50h4.9v9.8h-4.9Zm46.55,0h4.9v9.8h-4.9Zm-60,7.35h8.58v4.9a2.45,2.45,0,0,0,2.45,2.45h9.8a2.45,2.45,0,0,0,2.45-2.45v-4.9H65.93v4.9a2.45,2.45,0,0,0,2.45,2.45h9.8a2.45,2.45,0,0,0,2.45-2.45v-4.9H89.2V78.18a2.39,2.39,0,0,1-2.45,2.45H13.25a2.39,2.39,0,0,1-2.45-2.45Z"/></svg>