<svg id="Layer_1" data-name="Layer 1" xmlns="http://www.w3.org/2000/svg" viewBox="0 0 100 100"><title>Artboard 1</title><path d="M52.73,33.75l-1.24,5A2.34,2.34,0,1,0,56,39.85l2.34-9.37a2.38,2.38,0,0,0-1.23-2.67l-9.37-4.69a2.34,2.34,0,1,0-2.1,4.19l4.7,2.35C32.69,37.48,21.9,51.47,19.25,69.91a9.38,9.38,0,1,0,4.71.34C26.51,53.5,36.47,40.81,52.73,33.75ZM25.64,79.13A4.69,4.69,0,1,1,21,74.44,4.69,4.69,0,0,1,25.64,79.13Z"/><path d="M57.77,70.44a2.34,2.34,0,0,0-3.31,0l-5.37,5.37L43.7,70.44a2.34,2.34,0,1,0-3.31,3.31l5.37,5.37L40.39,84.5a2.34,2.34,0,1,0,3.31,3.31l5.37-5.37,5.37,5.37a2.34,2.34,0,1,0,3.32-3.31l-5.37-5.37,5.37-5.37A2.34,2.34,0,0,0,57.77,70.44Z"/><path d="M85.89,42.31a2.34,2.34,0,0,0-3.31,0L77.2,47.69l-5.37-5.37a2.34,2.34,0,0,0-3.31,3.31L73.89,51l-5.37,5.37a2.34,2.34,0,1,0,3.31,3.32l5.37-5.37,5.37,5.37a2.34,2.34,0,1,0,3.31-3.31L80.52,51l5.37-5.37A2.34,2.34,0,0,0,85.89,42.31Z"/><path d="M12.26,31.56a2.34,2.34,0,0,0,3.31,0L21,26.19l5.37,5.37a2.34,2.34,0,1,0,3.31-3.31l-5.37-5.37,5.37-5.37a2.34,2.34,0,1,0-3.31-3.31L21,19.56l-5.37-5.37a2.34,2.34,0,1,0-3.31,3.31l5.37,5.37-5.37,5.37A2.34,2.34,0,0,0,12.26,31.56Z"/><path d="M84.92,14.19l-2.76,2.76-7.3,7.3-4.38-4.38-1-1a2.34,2.34,0,0,0-3.31,3.31l7,7a2.34,2.34,0,0,0,3.31,0L88.24,17.5a2.34,2.34,0,0,0-3.31-3.31Z"/></svg>