<?xml version="1.0" encoding="UTF-8"?>
<svg width="72px" height="72px" viewBox="0 0 72 72" version="1.1" xmlns="http://www.w3.org/2000/svg" xmlns:xlink="http://www.w3.org/1999/xlink">
    <!-- Generator: Sketch 52.5 (67469) - http://www.bohemiancoding.com/sketch -->
    <title>pp-case-icon-fb</title>
    <desc>Created with Sketch.</desc>
    <g id="Page-1" stroke="none" stroke-width="1" fill="none" fill-rule="evenodd">
        <g id="pp-case-icon-fb">
            <path d="M58.66,22.84 C57.0046542,23.5746315 55.2484277,24.0566668 53.45,24.27 C55.3450339,23.1429532 56.7664252,21.3662141 57.45,19.27 C55.6694406,20.3263026 53.7213674,21.0703583 51.69,21.47 C48.8784964,18.4806517 44.4114067,17.74864 40.7928518,19.6843094 C37.1742968,21.6199788 35.3038379,25.7421281 36.23,29.74 C28.9345001,29.3742707 22.1372938,25.9284143 17.53,20.26 C15.1232359,24.4055669 16.3535882,29.7079034 20.34,32.37 C18.8984468,32.3248056 17.4888668,31.9338272 16.23,31.23 C16.23,31.23 16.23,31.31 16.23,31.34 C16.2299038,35.6609534 19.2748005,39.3834233 23.51,40.24 C22.1726227,40.6017971 20.7702395,40.6531038 19.41,40.39 C20.5972509,44.0840219 24.0005925,46.615433 27.88,46.69 C24.0736304,49.6639403 19.247221,51.0151912 14.45,50.45 C18.598638,53.117603 23.42773,54.5340441 28.36,54.53 C45.05,54.53 54.17,40.71 54.17,28.72 C54.17,28.33 54.17,27.94 54.17,27.55 C55.9474529,26.2691463 57.4815893,24.680824 58.7,22.86" id="Path" fill="#FFFFFF"></path>
            <path d="M31.22,55.13 L39.22,55.13 L39.22,35.75 L44.56,35.75 L45.27,29.07 L39.23,29.07 L39.23,25.73 C39.24,24 39.4,23 41.9,23 L45.24,23 L45.24,16.37 L39.9,16.37 C33.48,16.37 31.22,19.61 31.22,25.06 L31.22,29.06 L27.22,29.06 L27.22,35.74 L31.22,35.74 L31.22,55.13 Z M36.22,71.38 C16.5460081,71.3634347 0.608964433,55.4040126 0.620005611,35.7300168 C0.631046789,16.0560211 16.5859935,0.114496928 36.2599916,0.120014031 C55.9339897,0.125531133 71.879993,16.0760011 71.88,35.75 C71.88,55.4279056 55.9279056,71.38 36.25,71.38 L36.22,71.38 Z" id="Shape" fill="#808080" fill-rule="nonzero"></path>
        </g>
    </g>
</svg>