<svg id="Layer_1" data-name="Layer 1" xmlns="http://www.w3.org/2000/svg" viewBox="0 0 74 74"><defs><style>.cls-1{fill:#323232;}</style></defs><title>Artboard 1</title><path class="cls-1" d="M37,2.26A34.74,34.74,0,1,0,71.74,37,34.71,34.71,0,0,0,37,2.26ZM24.64,36.39v1L44.56,47.93a6.64,6.64,0,0,1,3.17-.82,6.23,6.23,0,1,1-6.23,6.23L21.06,42.52a6,6,0,0,1-2.66.61,6.23,6.23,0,0,1,0-12.47,7.11,7.11,0,0,1,2.55.51L41.5,20.24a6.27,6.27,0,0,1,6.23-5.93,6.23,6.23,0,0,1,0,12.47,6.89,6.89,0,0,1-3.47-1Z"/><path class="cls-1" d="M37,72.25A35.25,35.25,0,1,1,72.25,37,35.29,35.29,0,0,1,37,72.25ZM37,2.77A34.23,34.23,0,1,0,71.23,37,34.27,34.27,0,0,0,37,2.77ZM47.73,60.09A6.67,6.67,0,0,1,41,53.66L21,43.09a6.52,6.52,0,0,1-2.64.55,6.74,6.74,0,0,1,0-13.49,7.32,7.32,0,0,1,2.51.46L41,19.92a6.8,6.8,0,0,1,6.72-6.12,6.74,6.74,0,0,1,0,13.49,7.34,7.34,0,0,1-3.48-.95L25.15,36.69v.41L44.56,47.36a7.17,7.17,0,0,1,3.17-.75,6.74,6.74,0,0,1,0,13.49ZM21.07,41.94,42,53v.31a5.72,5.72,0,1,0,5.72-5.72,6.1,6.1,0,0,0-2.92.75l-.24.13L24.13,37.72V36.08L44.27,25.17l.25.15a6.38,6.38,0,0,0,3.21.95,5.72,5.72,0,0,0,0-11.44A5.78,5.78,0,0,0,42,20.28l0,.28L21,31.74l-.22-.08a6.56,6.56,0,0,0-2.38-.48,5.72,5.72,0,0,0,0,11.44,5.46,5.46,0,0,0,2.43-.56Z"/></svg>