<?xml version="1.0" encoding="UTF-8"?>
<svg width="24px" height="24px" viewBox="0 0 24 24" version="1.1" xmlns="http://www.w3.org/2000/svg" xmlns:xlink="http://www.w3.org/1999/xlink">
    <!-- Generator: Sketch 52.5 (67469) - http://www.bohemiancoding.com/sketch -->
    <title>Fill 1</title>
    <desc>Created with Sketch.</desc>
    <g id="Page-1" stroke="none" stroke-width="1" fill="none" fill-rule="evenodd">
        <path d="M4.726,19.072 L8.332,19.072 L8.332,8.221 L4.726,8.221 L4.726,19.072 Z M17.189,7.966 C19.563,7.966 21.342,9.515 21.342,12.849 L21.342,19.073 L17.735,19.073 L17.735,13.267 C17.735,11.808 17.212,10.813 15.906,10.813 C14.91,10.813 14.318,11.482 14.058,12.131 C13.964,12.363 13.937,12.687 13.937,13.011 L13.937,19.073 L10.331,19.073 C10.331,19.073 10.379,9.24 10.331,8.221 L13.937,8.221 L13.937,9.759 C14.416,9.02 15.273,7.966 17.189,7.966 Z M6.555,2.987 C7.789,2.987 8.549,3.799 8.572,4.864 C8.572,5.905 7.787,6.737 6.53,6.737 L6.508,6.737 C5.297,6.737 4.512,5.905 4.512,4.864 C4.512,3.799 5.321,2.987 6.555,2.987 Z M3.626,0 C1.624,0 0,1.624 0,3.626 L0,20.375 C0,22.376 1.624,24 3.626,24 L20.378,24 C22.38,24 24,22.376 24,20.375 L24,3.626 C24,1.624 22.379,0 20.378,0 L3.626,0 Z" id="Fill-1" fill="#808080"></path>
    </g>
</svg>