<svg id="Layer_1" data-name="Layer 1" xmlns="http://www.w3.org/2000/svg" viewBox="0 0 72 74"><defs><style>.cls-1{fill:#ec1414;}</style></defs><title>Artboard 1</title><path class="cls-1" d="M55.36,8v8.3H52.59a2.77,2.77,0,0,0-2.77,2.77V35.67a2.77,2.77,0,0,0,2.77,2.77h2.77V66.09a2.77,2.77,0,1,0,5.53,0V38.44h2.77a2.77,2.77,0,0,0,2.77-2.77V19.08a2.77,2.77,0,0,0-2.77-2.77H60.89V8a2.77,2.77,0,1,0-5.53,0Zm5.53,13.83V32.91H55.36V21.84Z"/><path class="cls-1" d="M38.77,66.09V57.8h2.77A2.77,2.77,0,0,0,44.3,55V38.44a2.77,2.77,0,0,0-2.77-2.77H38.77V8a2.77,2.77,0,1,0-5.53,0V35.67H30.47a2.77,2.77,0,0,0-2.77,2.77V55a2.77,2.77,0,0,0,2.77,2.77h2.77v8.3a2.77,2.77,0,0,0,5.53,0ZM33.23,52.27V41.2h5.53V52.27Z"/><path class="cls-1" d="M16.64,66.09V38.44h2.77a2.77,2.77,0,0,0,2.77-2.77V19.08a2.77,2.77,0,0,0-2.77-2.77H16.64V8a2.77,2.77,0,0,0-5.53,0v8.3H8.34a2.77,2.77,0,0,0-2.77,2.77V35.67a2.77,2.77,0,0,0,2.77,2.77h2.77V66.09a2.77,2.77,0,0,0,5.53,0ZM11.11,32.91V21.84h5.53V32.91Z"/></svg>